# xmcd
#
# Track frame offsets:
#	183
#	13345
#	25880
#	38188
#	50503
#	63210
#	74925
#	87808
#	101295
#	114670
#	128138
#	141468
#	154585
#	167603
#	182168
#	194513
#	208105
#	218990
#	232975
#	244723
#
# Disc length: 3443 seconds
#
# Revision: 0
# Processed by: cddbd v1.5.1PL0 Copyright (c) Steve Scherf et al.
# Submitted via: audiograbber 1.83.01
#
DISCID=250d7114
DTITLE=Various Artist - Hitsville USA Vol. 1
DYEAR=1993
DGENRE=
TTITLE0=Contours - Do you love me
TTITLE1=Smokey Robinson&the Miracles - Shop around
TTITLE2=Marvelettes - Please Mr. Postman
TTITLE3=Martha and the Vandellas - Heatwave
TTITLE4=Marvin Gaye - Can I get a witness
TTITLE5=Supremes - Baby love
TTITLE6=Mary Wells - My guy
TTITLE7=Kim Weston&Marvin Gaye - It takes two
TTITLE8=Temptations - My girl
TTITLE9=Jimmy Ruffin - What becomes of the broken hearted
TTITLE10=Four Tops - Reach out I'll be there
TTITLE11=Brenda Holloway - Every little bit hurts
TTITLE12=Isley Brothers - This old heart of mine
TTITLE13=Shorty Long - Devil with the blue dress on
TTITLE14=Spinners - I'll always love you
TTITLE15=Junior Walker&the All Stars - Shotgun
TTITLE16=Velvelettes - Needle in a haystack
TTITLE17=Stevie Wonder - Fingertips Part 2
TTITLE18=Elgins - Darling baby
TTITLE19=Gladys Knight&the Pips - Everybody needs love
EXTD=
EXTT0=
EXTT1=
EXTT2=
EXTT3=
EXTT4=
EXTT5=
EXTT6=
EXTT7=
EXTT8=
EXTT9=
EXTT10=
EXTT11=
EXTT12=
EXTT13=
EXTT14=
EXTT15=
EXTT16=
EXTT17=
EXTT18=
EXTT19=
PLAYORDER=
